Coordinates
version=1
nRows=11
nColumns=40
inDegrees=yes

Units are S.I. units (second, meters, Newtons, ...)
Angles are in degrees.

endheader
time	pelvis_tilt	pelvis_list	pelvis_rotation	pelvis_tx	pelvis_ty	pelvis_tz	hip_flexion_r	hip_adduction_r	hip_rotation_r	knee_angle_r	knee_angle_r_beta	ankle_angle_r	subtalar_angle_r	mtp_angle_r	hip_flexion_l	hip_adduction_l	hip_rotation_l	knee_angle_l	knee_angle_l_beta	ankle_angle_l	subtalar_angle_l	mtp_angle_l	lumbar_extension	lumbar_bending	lumbar_rotation	arm_flex_r	arm_add_r	arm_rot_r	elbow_flex_r	pro_sup_r	wrist_flex_r	wrist_dev_r	arm_flex_l	arm_add_l	arm_rot_l	elbow_flex_l	pro_sup_l	wrist_flex_l	wrist_dev_l
     21.96000000	     -8.10838080	     -5.31815514	     -1.77364276	      0.83141403	      0.91866526	      0.47080245	      8.60322621	     -0.51828417	    -10.46807701	     31.27336431	     31.27336431	     14.78606957	     -8.53083587	     -3.74143833	     29.63786512	     -7.61202027	     -5.23802348	     25.74402469	     25.74402469	      7.16218661	    -12.49662601	      1.79299970	     -8.32780766	      3.18794081	      2.43991855	     25.85586697	    -13.56497264	     -5.70066034	     84.46804265	     45.07836977	      0.00000000	      0.00000000	      2.46276306	     -9.78552868	    -11.44352331	     29.17125028	     46.75853211	      0.00000000	      0.00000000
     21.97228571	     -8.01401306	     -5.38228001	     -2.08724301	      0.83258260	      0.92022433	      0.46927526	      9.85199983	     -0.67139369	     -9.94578289	     34.27841480	     34.27841480	     13.41883202	    -10.96719660	     -4.07998986	     28.82988339	     -7.80144962	     -5.94381558	     25.58767530	     25.58767530	      7.89739237	    -11.67288262	      1.57113747	     -8.27341537	      3.09689784	      2.41038478	     24.10875389	    -13.76763137	     -4.42590226	     83.51995571	     45.06652924	      0.00000000	      0.00000000	      3.34934643	    -10.00556136	    -11.88338192	     29.86069518	     46.82738121	      0.00000000	      0.00000000
     21.98457143	     -7.92100680	     -5.26107886	     -2.36288466	      0.83355101	      0.92167967	      0.46764178	     11.28174624	     -1.19365756	     -9.86010854	     37.57778915	     37.57778915	     12.34943130	    -12.63810908	     -4.11059992	     27.88410318	     -7.70663171	     -6.55724313	     25.13393459	     25.13393459	      8.40502231	    -11.16906317	      1.36056243	     -8.23716365	      2.81342436	      2.20932559	     22.36451590	    -13.56137890	     -3.76297806	     82.64208412	     45.06789870	      0.00000000	      0.00000000	      4.25263033	    -10.32706114	    -12.03874178	     30.41139844	     46.86129049	      0.00000000	      0.00000000
     21.99685714	     -7.83232134	     -5.20197261	     -2.61237587	      0.83436930	      0.92303512	      0.46607680	     12.76152091	     -1.59041453	     -9.74251408	     40.85177850	     40.85177850	     11.31239770	    -14.62626405	     -3.77241185	     26.98472764	     -7.68074962	     -7.19484446	     24.71727054	     24.71727054	      8.83732273	    -10.55650680	      1.06434042	     -8.19513587	      2.63819242	      2.10132630	     20.55825430	    -13.52980927	     -3.00179024	     81.53398819	     45.07338226	      0.00000000	      0.00000000	      5.22070991	    -10.62521547	    -12.19821609	     31.09970998	     46.89557271	      0.00000000	      0.00000000
     22.00914286	     -7.71524686	     -5.14070693	     -2.83525638	      0.83498392	      0.92431125	      0.46457643	     14.23857508	     -2.01735229	     -9.74920597	     44.07113101	     44.07113101	     10.44487616	    -16.39659564	     -3.14070996	     26.07891555	     -7.63734194	     -7.78660712	     24.30816023	     24.30816023	      9.23334641	     -9.93544715	      0.72873902	     -8.22450874	      2.43095894	      1.94368991	     18.75156847	    -13.52033725	     -2.22178090	     80.30811810	     45.08183307	      0.00000000	      0.00000000	      6.22703560	    -10.92236475	    -12.33671685	     31.84734012	     46.92691016	      0.00000000	      0.00000000
     22.02142857	     -7.60191775	     -5.04393111	     -3.02352595	      0.83552430	      0.92542788	      0.46300682	     15.73748248	     -2.56169883	     -9.92978843	     47.26237911	     47.26237911	     10.02182919	    -17.68656315	     -1.95570305	     25.18768741	     -7.54463270	     -8.45053966	     23.88768622	     23.88768622	      9.54450116	     -9.28764369	      0.34439698	     -8.22438633	      2.24626706	      1.82771674	     16.96566939	    -13.63843258	     -1.36360673	     78.78678002	     45.09773300	      0.00000000	      0.00000000	      7.24483073	    -11.19117715	    -12.47494577	     32.72243579	     46.95645385	      0.00000000	      0.00000000
     22.03371429	     -7.43179786	     -5.06257140	     -3.16061184	      0.83591602	      0.92649999	      0.46157049	     17.36602272	     -2.89578124	     -9.94997279	     50.76875579	     50.76875579	     11.86771469	    -18.00652088	      5.62324817	     24.28386692	     -7.57347180	     -9.06791463	     23.50707400	     23.50707400	      9.62235111	     -8.62209398	     -0.83328711	     -8.29984556	      2.17827827	      0.89789532	     16.10859449	    -13.57941366	      0.87775799	     75.67571100	     45.13289539	      0.00000000	      0.00000000	      7.53093930	    -11.68408634	    -12.91289468	     34.49405098	     46.98043264	      0.00000000	      0.00000000
     22.04600000	     -7.24794485	     -4.89685655	     -3.24111774	      0.83627315	      0.92744330	      0.45986841	     18.69689334	     -3.65931068	    -10.34104070	     53.54988567	     53.54988567	     11.53508088	    -18.62528475	      5.84889209	     23.39314034	     -7.29030091	     -9.40066526	     23.14465024	     23.14465024	      9.90858656	     -8.35376440	     -0.92970644	     -8.43903521	      1.95340002	      0.63094610	     14.12899007	    -13.54627864	      1.30228581	     74.47642661	     45.15054684	      0.00000000	      0.00000000	      8.69839411	    -12.02264524	    -12.98938584	     35.18134247	     47.00588540	      0.00000000	      0.00000000
     22.05828571	     -7.11123308	     -4.82927889	     -3.35454988	      0.83649954	      0.92833863	      0.45832917	     20.20774719	     -4.15196955	    -10.40723028	     56.40694450	     56.40694450	     12.76257592	    -18.81063131	     10.69181752	     22.49340298	     -7.11891660	     -9.75394451	     22.64732423	     22.64732423	     10.06155065	     -8.03742235	     -1.47324028	     -8.47866530	      1.85685359	      0.36371720	     12.86040786	    -13.51925242	      1.96145431	     71.08450844	     45.24162974	      0.00000000	      0.00000000	      9.58923745	    -12.30465098	    -12.96096085	     36.42339123	     46.98338052	      0.00000000	      0.00000000
     22.07057143	     -6.94699587	     -4.65899119	     -3.43602150	      0.83671629	      0.92912423	      0.45670177	     21.48263432	     -4.86908625	    -10.62328401	     58.70000978	     58.70000978	     12.65340703	    -19.02058189	     10.90260661	     21.62867278	     -6.81214687	    -10.05396628	     22.26203797	     22.26203797	     10.36443214	     -7.78965108	     -1.57128467	     -8.61345312	      1.69160385	      0.28070001	     10.84543046	    -13.70901304	      2.34868676	     69.56190651	     45.27055053	      0.00000000	      0.00000000	     10.81737510	    -12.50351384	    -12.99233100	     37.22584914	     47.00304449	      0.00000000	      0.00000000
     22.08285714	     -6.76498023	     -4.56820310	     -3.47572930	      0.83688077	      0.92995908	      0.45518731	     22.64903184	     -5.42349826	    -10.77045429	     60.64123317	     60.64123317	     12.58838171	    -19.15863576	     11.30445141	     20.76821464	     -6.57833676	    -10.26336669	     21.89151220	     21.89151220	     10.62049479	     -7.55980297	     -1.67252960	     -8.77056041	      1.60593935	      0.19806615	      8.83057580	    -13.88875169	      2.65385545	     67.65339410	     45.31510396	      0.00000000	      0.00000000	     12.10627048	    -12.68331446	    -12.98158558	     38.07561800	     47.01935496	      0.00000000	      0.00000000
